<svg xmlns="http://www.w3.org/2000/svg" xmlns:xlink="http://www.w3.org/1999/xlink" viewBox="0 0 100 100"><path fill="#a0d2a1" d="M40.667,74.667c0,0,8.661,9.333,20,9.333C69.485,84,82,79.035,82,51.725C82,25.656,71.32,12,71.32,12C63.949,23.619,18,20.781,18,49.333C18,70.437,40.667,74.667,40.667,74.667z"/><path fill="#8cc78c" d="M40.61,74.298C64.657,56.95,71.29,26.846,71.29,11.937c-7.377,11.629-53.366,8.789-53.366,37.366c0,21.122,22.686,25.355,22.686,25.355V74.298z"/><path fill="none" stroke="#1f212b" stroke-linecap="round" stroke-linejoin="round" stroke-width="2" d="M40.667,74.667c0,0,8.661,9.333,20,9.333C69.485,84,82,79.035,82,51.725C82,25.656,71.32,12,71.32,12C63.949,23.619,18,20.781,18,49.333C18,70.437,40.667,74.667,40.667,74.667z"/><path fill="none" stroke="#1f212b" stroke-linecap="round" stroke-linejoin="round" stroke-width="2" d="M41,75c0,0-9.5,8.714-27,11"/><path fill="none" stroke="#1f212b" stroke-linecap="round" stroke-linejoin="round" d="M71.32,12c0,0,1.18,39.5-30.607,62.937"/><path fill="none" stroke="#1f212b" stroke-linecap="round" stroke-linejoin="round" d="M71.93,61.884c0.669,0.43,1.341,0.919,2.014,1.473"/><path fill="none" stroke="#1f212b" stroke-linecap="round" stroke-linejoin="round" d="M56,60c0,0,6.321-2.431,12.909,0.297"/><path fill="none" stroke="#1f212b" stroke-linecap="round" stroke-linejoin="round" d="M62.5,48.5c0,0-0.136-11.325-7.185-17.367"/><path fill="none" stroke="#1f212b" stroke-linecap="round" stroke-linejoin="round" d="M37,40.35c-0.633-0.47-1.299-0.921-2-1.35"/><path fill="none" stroke="#1f212b" stroke-linecap="round" stroke-linejoin="round" d="M42.345,45.734c-0.901-1.224-1.927-2.408-3.094-3.525"/><path fill="none" stroke="#1f212b" stroke-linecap="round" stroke-linejoin="round" d="M48.5,68c0,0,1.04-9.886-4.21-19.245"/></svg>